<svg width="15" height="15" viewBox="0 0 15 15" fill="none" xmlns="http://www.w3.org/2000/svg">
<g clip-path="url(#clip0_464_2275)">
<path d="M7.4998 14.7248C6.42198 14.7248 5.35098 14.4821 4.38589 14.0209L5.70837 11.4877C6.26814 11.7392 6.88204 11.871 7.4998 11.871C9.91021 11.871 11.871 9.91026 11.871 7.4999C11.871 6.43511 11.4914 5.42591 10.7969 4.6303L12.842 2.63535C14.0583 3.96905 14.7249 5.6855 14.7249 7.4999C14.7249 11.4835 11.4835 14.7248 7.4998 14.7248Z" fill="#555555" stroke="#EDEDED" stroke-width="0.4"/>
<path d="M12.8465 2.4564C14.1395 3.82598 14.8498 5.61078 14.8498 7.49995C14.8498 8.49222 14.6553 9.45482 14.2724 10.3607C13.9022 11.2359 13.3721 12.022 12.697 12.6971C12.022 13.3721 11.2358 13.9022 10.3607 14.2724C9.45474 14.6557 8.4921 14.8498 7.49981 14.8498C6.35997 14.8498 5.22802 14.5828 4.21583 14.0768L5.65302 11.3241C6.22482 11.6004 6.86006 11.7461 7.49981 11.7461C8.63402 11.7461 9.70027 11.3042 10.5026 10.5023C11.3045 9.70036 11.7461 8.63413 11.7461 7.49995C11.7461 6.42546 11.3488 5.4103 10.6242 4.62452L12.8468 2.4564M12.8502 2.24353L10.4132 4.62076C11.1446 5.36036 11.5963 6.37778 11.5963 7.49995C11.5963 9.76193 9.7626 11.5959 7.50019 11.5959C6.80975 11.5959 6.15911 11.4251 5.58882 11.1232L4.01309 14.1413C5.05494 14.6898 6.24134 14.9999 7.50019 14.9999C11.6424 14.9999 15.0004 11.6421 15.0004 7.49995C15.0004 5.45272 14.18 3.59696 12.8502 2.24353Z" fill="#EDEDED"/>
<path d="M5.22167 11.231L3.89879 13.7649C1.65625 12.4753 0.275073 10.0999 0.275073 7.49998C0.275073 3.60817 3.36806 0.425064 7.22471 0.280219V3.13758C4.94234 3.28 3.12902 5.18208 3.12902 7.49998C3.12902 9.03314 3.92447 10.4389 5.22167 11.231Z" fill="#555555" stroke="#EDEDED" stroke-width="0.4"/>
<mask id="path-4-inside-1_464_2275" fill="white">
<path d="M7.34964 0.151674V3.25649C6.27174 3.29366 5.26406 3.73104 4.49741 4.49767C3.69547 5.29959 3.25395 6.36582 3.25395 7.5C3.25395 9.02876 4.06753 10.4265 5.3872 11.1841L3.95002 13.9372C2.84096 13.3244 1.90611 12.4335 1.23933 11.3527C0.526744 10.1971 0.150176 8.86507 0.150176 7.50038C0.150176 6.50811 0.344655 5.5455 0.727605 4.63959C1.09779 3.76445 1.62791 2.9783 2.30296 2.30327C2.978 1.62825 3.76417 1.09814 4.63933 0.727962C5.49946 0.364169 6.41066 0.170446 7.35001 0.15205M7.50019 0.000375432C3.35795 0 0 3.35786 0 7.5C0 10.3833 1.62679 12.8863 4.01271 14.1414L5.58844 11.1233C4.28942 10.4366 3.40412 9.07156 3.40412 7.5C3.40412 5.23802 5.23778 3.40404 7.49981 3.40404V0L7.50019 0.000375432Z"/>
</mask>
<path d="M7.34964 0.151674V3.25649C6.27174 3.29366 5.26406 3.73104 4.49741 4.49767C3.69547 5.29959 3.25395 6.36582 3.25395 7.5C3.25395 9.02876 4.06753 10.4265 5.3872 11.1841L3.95002 13.9372C2.84096 13.3244 1.90611 12.4335 1.23933 11.3527C0.526744 10.1971 0.150176 8.86507 0.150176 7.50038C0.150176 6.50811 0.344655 5.5455 0.727605 4.63959C1.09779 3.76445 1.62791 2.9783 2.30296 2.30327C2.978 1.62825 3.76417 1.09814 4.63933 0.727962C5.49946 0.364169 6.41066 0.170446 7.35001 0.15205M7.50019 0.000375432C3.35795 0 0 3.35786 0 7.5C0 10.3833 1.62679 12.8863 4.01271 14.1414L5.58844 11.1233C4.28942 10.4366 3.40412 9.07156 3.40412 7.5C3.40412 5.23802 5.23778 3.40404 7.49981 3.40404V0L7.50019 0.000375432Z" fill="#EDEDED"/>
<path d="M7.34964 3.25649L7.36342 3.65626L7.74964 3.64294V3.25649H7.34964ZM5.3872 11.1841L5.7418 11.3692L5.91964 11.0285L5.58636 10.8372L5.3872 11.1841ZM3.95002 13.9372L3.75659 14.2873L4.11508 14.4853L4.30461 14.1223L3.95002 13.9372ZM1.23933 11.3527L0.89886 11.5626L0.898898 11.5627L1.23933 11.3527ZM0.727605 4.63959L0.359208 4.48375L0.359171 4.48384L0.727605 4.63959ZM4.63933 0.727962L4.48351 0.359558L4.4835 0.359563L4.63933 0.727962ZM7.50019 0.000375432L7.50015 0.400375L8.46664 0.400463L7.78289 -0.282609L7.50019 0.000375432ZM4.01271 14.1414L3.8265 14.4954L4.1816 14.6822L4.3673 14.3265L4.01271 14.1414ZM5.58844 11.1233L5.94302 11.3084L6.12721 10.9556L5.77537 10.7697L5.58844 11.1233ZM7.49981 3.40404V3.80404H7.89981V3.40404H7.49981ZM7.49981 0L7.78251 -0.282984L7.09981 -0.965002V0H7.49981ZM6.94964 0.151674V3.25649H7.74964V0.151674H6.94964ZM7.33585 2.85673C6.15655 2.8974 5.05275 3.37667 4.21457 4.21483L4.78025 4.78052C5.47537 4.08542 6.38694 3.68993 7.36342 3.65626L7.33585 2.85673ZM4.21457 4.21483C3.33759 5.09179 2.85395 6.25977 2.85395 7.5H3.65395C3.65395 6.47187 4.05335 5.5074 4.78025 4.78052L4.21457 4.21483ZM2.85395 7.5C2.85395 9.17243 3.7445 10.7023 5.18805 11.531L5.58636 10.8372C4.39056 10.1507 3.65395 8.88509 3.65395 7.5H2.85395ZM5.03261 10.999L3.59543 13.752L4.30461 14.1223L5.7418 11.3692L5.03261 10.999ZM4.14344 13.587C3.09469 13.0076 2.21045 12.165 1.57976 11.1427L0.898898 11.5627C1.60178 12.7021 2.58724 13.6413 3.75659 14.2873L4.14344 13.587ZM1.5798 11.1427C0.906353 10.0506 0.550176 8.79134 0.550176 7.50038H-0.249824C-0.249824 8.9388 0.147134 10.3436 0.89886 11.5626L1.5798 11.1427ZM0.550176 7.50038C0.550176 6.5612 0.734081 5.65159 1.09604 4.79533L0.359171 4.48384C-0.0447713 5.43942 -0.249824 6.45502 -0.249824 7.50038H0.550176ZM1.096 4.79542C1.44601 3.96798 1.947 3.2249 2.5858 2.58612L2.02012 2.02043C1.30882 2.7317 0.749566 3.56093 0.359208 4.48375L1.096 4.79542ZM2.5858 2.58612C3.22459 1.94734 3.96769 1.44637 4.79515 1.09636L4.4835 0.359563C3.56066 0.74991 2.73141 1.30915 2.02012 2.02043L2.5858 2.58612ZM4.79514 1.09637C5.60817 0.752498 6.46912 0.569378 7.35784 0.551973L7.34218 -0.247873C6.3522 -0.228486 5.39076 -0.0241606 4.48351 0.359558L4.79514 1.09637ZM7.50022 -0.399625C3.13704 -0.40002 -0.4 3.13695 -0.4 7.5H0.4C0.4 3.57878 3.57885 0.40002 7.50015 0.400375L7.50022 -0.399625ZM-0.4 7.5C-0.4 10.5376 1.3143 13.1739 3.8265 14.4954L4.19893 13.7874C1.93928 12.5987 0.4 10.229 0.4 7.5H-0.4ZM4.3673 14.3265L5.94302 11.3084L5.23386 10.9382L3.65813 13.9563L4.3673 14.3265ZM5.77537 10.7697C4.60222 10.1495 3.80412 8.91752 3.80412 7.5H3.00412C3.00412 9.2256 3.97661 10.7237 5.40151 11.4769L5.77537 10.7697ZM3.80412 7.5C3.80412 5.4589 5.45873 3.80404 7.49981 3.80404V3.00404C5.01683 3.00404 3.00412 5.01715 3.00412 7.5H3.80412ZM7.89981 3.40404V0H7.09981V3.40404H7.89981ZM7.21711 0.282984L7.21749 0.28336L7.78289 -0.282609L7.78251 -0.282984L7.21711 0.282984Z" fill="#EDEDED" mask="url(#path-4-inside-1_464_2275)"/>
<path d="M7.77489 3.13742V0.280156C9.53317 0.345285 11.1767 1.03441 12.4564 2.24315L10.4105 4.23893C9.67713 3.58226 8.75751 3.19774 7.77489 3.13742Z" fill="#555555" stroke="#EDEDED" stroke-width="0.4"/>
<mask id="path-7-inside-2_464_2275" fill="white">
<path d="M7.64999 0.151674C8.60061 0.170446 9.52194 0.368299 10.3911 0.740727C11.2287 1.09926 11.9833 1.60422 12.6362 2.24245L10.4132 4.41095C9.65898 3.698 8.68771 3.29216 7.65037 3.25649V0.151674M7.50019 0V3.40404C8.64003 3.40404 9.67099 3.86957 10.4132 4.62081L12.8502 2.24358C11.4889 0.858988 9.59478 0 7.49982 0H7.50019Z"/>
</mask>
<path d="M7.64999 0.151674C8.60061 0.170446 9.52194 0.368299 10.3911 0.740727C11.2287 1.09926 11.9833 1.60422 12.6362 2.24245L10.4132 4.41095C9.65898 3.698 8.68771 3.29216 7.65037 3.25649V0.151674M7.50019 0V3.40404C8.64003 3.40404 9.67099 3.86957 10.4132 4.62081L12.8502 2.24358C11.4889 0.858988 9.59478 0 7.49982 0H7.50019Z" fill="#EDEDED"/>
<path d="M10.3911 0.740727L10.2335 1.10839L10.2337 1.10845L10.3911 0.740727ZM12.6362 2.24245L12.9155 2.52878L13.2088 2.24276L12.9158 1.95642L12.6362 2.24245ZM10.4132 4.41095L10.1385 4.70164L10.4176 4.96548L10.6926 4.69728L10.4132 4.41095ZM7.65037 3.25649H7.25037V3.64298L7.63662 3.65626L7.65037 3.25649ZM7.50019 0H7.90019V-0.4H7.50019V0ZM7.50019 3.40404H7.10019V3.80404H7.50019V3.40404ZM10.4132 4.62081L10.1287 4.90195L10.408 5.18468L10.6926 4.90715L10.4132 4.62081ZM12.8502 2.24358L13.1295 2.52991L13.417 2.2495L13.1355 1.96314L12.8502 2.24358ZM7.6421 0.551596C8.54157 0.569358 9.41206 0.75639 10.2335 1.10839L10.5486 0.373059C9.63182 -0.0197928 8.65965 -0.228466 7.65789 -0.248248L7.6421 0.551596ZM10.2337 1.10845C11.0257 1.44747 11.7389 1.92468 12.3566 2.52849L12.9158 1.95642C12.2277 1.28376 11.4317 0.751054 10.5485 0.372999L10.2337 1.10845ZM12.3569 1.95612L10.1339 4.12462L10.6926 4.69728L12.9155 2.52878L12.3569 1.95612ZM10.688 4.12026C9.86293 3.34037 8.79884 2.89575 7.66411 2.85673L7.63662 3.65626C8.57659 3.68858 9.45503 4.05564 10.1385 4.70164L10.688 4.12026ZM8.05037 3.25649V0.151674H7.25037V3.25649H8.05037ZM7.10019 0V3.40404H7.90019V0H7.10019ZM7.50019 3.80404C8.52883 3.80404 9.45854 4.22367 10.1287 4.90195L10.6978 4.33968C9.88345 3.51548 8.75123 3.00404 7.50019 3.00404V3.80404ZM10.6926 4.90715L13.1295 2.52991L12.5709 1.95725L10.1339 4.33448L10.6926 4.90715ZM13.1355 1.96314C11.7021 0.50527 9.70645 -0.4 7.49982 -0.4V0.4C9.48311 0.4 11.2757 1.21271 12.565 2.52402L13.1355 1.96314ZM7.49982 0.4H7.50019V-0.4H7.49982V0.4Z" fill="#EDEDED" mask="url(#path-7-inside-2_464_2275)"/>
</g>
<defs>
<clipPath id="clip0_464_2275">
<rect width="15" height="15" fill="white"/>
</clipPath>
</defs>
</svg>
