<svg width="current" height="current" viewBox="0 0 24 24" fill="none" xmlns="http://www.w3.org/2000/svg">
<path d="M20.2048 12.9151L20.2046 12.9172C19.7463 17.0414 16.2438 20.25 12 20.25C9.81196 20.25 7.71354 19.3808 6.16637 17.8336C4.61919 16.2865 3.75 14.188 3.75 12C3.75 7.75127 6.96087 4.2523 11.0776 3.7971C11.1515 3.79274 11.1996 3.80894 11.2314 3.82651C11.2674 3.8464 11.3001 3.87803 11.3241 3.9207C11.3744 4.01001 11.3713 4.11163 11.3174 4.19184L11.3126 4.19905L11.3079 4.20637C10.7028 5.15401 10.35 6.29356 10.35 7.50001L10.35 7.50061C10.3509 8.60349 10.6482 9.68587 11.2108 10.6345C11.7734 11.5831 12.5806 12.363 13.548 12.8927C14.5154 13.4223 15.6073 13.6823 16.7096 13.6452C17.8096 13.6083 18.8795 13.277 19.8078 12.6859C19.8741 12.6456 19.9257 12.6377 19.9626 12.6388C20.0035 12.6399 20.0468 12.653 20.0875 12.6797C20.174 12.7364 20.2149 12.8268 20.2048 12.9151Z" stroke="currentColor" stroke-width="1.5"/>
</svg>
