<svg width="15" height="15" viewBox="0 0 15 15" fill="none" xmlns="http://www.w3.org/2000/svg">
<g clip-path="url(#clip0_708_698)">
<path d="M7.49999 14.7249C6.42217 14.7249 5.35116 14.4823 4.38607 14.021L5.70855 11.4879C6.26832 11.7393 6.88223 11.8711 7.49999 11.8711C9.91039 11.8711 11.8711 9.91038 11.8711 7.50003C11.8711 6.43523 11.4916 5.42603 10.797 4.63042L12.8421 2.63547C14.0585 3.96918 14.7251 5.68562 14.7251 7.50003C14.7251 11.4836 11.4837 14.7249 7.49999 14.7249Z" fill="#636363" stroke="#FAFAFA" stroke-width="0.4"/>
<path d="M12.8466 2.45652C14.1396 3.8261 14.8499 5.6109 14.8499 7.50007C14.8499 8.49234 14.6554 9.45495 14.2725 10.3609C13.9023 11.236 13.3722 12.0221 12.6971 12.6972C12.0221 13.3722 11.2359 13.9023 10.3608 14.2725C9.45483 14.6558 8.4922 14.8499 7.49991 14.8499C6.36007 14.8499 5.22811 14.583 4.21592 14.0769L5.65311 11.3242C6.22491 11.6005 6.86015 11.7462 7.49991 11.7462C8.63411 11.7462 9.70037 11.3043 10.5027 10.5024C11.3046 9.70048 11.7461 8.63425 11.7461 7.50007C11.7461 6.42559 11.3489 5.41042 10.6243 4.62464L12.8469 2.45652M12.8503 2.24365L10.4133 4.62089C11.1447 5.36049 11.5963 6.37791 11.5963 7.50007C11.5963 9.76205 9.76269 11.596 7.50028 11.596C6.80984 11.596 6.15921 11.4252 5.58891 11.1234L4.01318 14.1415C5.05503 14.69 6.24143 15.0001 7.50028 15.0001C11.6425 15.0001 15.0005 11.6422 15.0005 7.50007C15.0005 5.45284 14.1801 3.59708 12.8503 2.24365Z" fill="#FAFAFA"/>
<path d="M5.22179 11.231L3.89891 13.7649C1.65637 12.4753 0.275195 10.0999 0.275195 7.49998C0.275195 3.60817 3.36818 0.425063 7.22483 0.280219V3.13758C4.94246 3.28 3.12914 5.18208 3.12914 7.49998C3.12914 9.03314 3.9246 10.4389 5.22179 11.231Z" fill="#636363" stroke="#FAFAFA" stroke-width="0.4"/>
<mask id="path-4-inside-1_708_698" fill="white">
<path d="M7.34964 0.151674V3.25649C6.27174 3.29366 5.26406 3.73104 4.49741 4.49767C3.69547 5.29959 3.25395 6.36582 3.25395 7.5C3.25395 9.02876 4.06753 10.4265 5.38721 11.1841L3.95002 13.9372C2.84096 13.3244 1.90611 12.4335 1.23933 11.3527C0.526744 10.1971 0.150176 8.86507 0.150176 7.50038C0.150176 6.50811 0.344655 5.5455 0.727605 4.63959C1.09779 3.76445 1.62791 2.9783 2.30296 2.30327C2.978 1.62825 3.76417 1.09814 4.63933 0.727962C5.49946 0.364169 6.41066 0.170446 7.35001 0.15205M7.50019 0.000375432C3.35795 0 0 3.35786 0 7.5C0 10.3833 1.62679 12.8863 4.01271 14.1414L5.58844 11.1233C4.28942 10.4366 3.40412 9.07156 3.40412 7.5C3.40412 5.23802 5.23778 3.40404 7.49981 3.40404V0L7.50019 0.000375432Z"/>
</mask>
<path d="M7.34964 0.151674V3.25649C6.27174 3.29366 5.26406 3.73104 4.49741 4.49767C3.69547 5.29959 3.25395 6.36582 3.25395 7.5C3.25395 9.02876 4.06753 10.4265 5.38721 11.1841L3.95002 13.9372C2.84096 13.3244 1.90611 12.4335 1.23933 11.3527C0.526744 10.1971 0.150176 8.86507 0.150176 7.50038C0.150176 6.50811 0.344655 5.5455 0.727605 4.63959C1.09779 3.76445 1.62791 2.9783 2.30296 2.30327C2.978 1.62825 3.76417 1.09814 4.63933 0.727962C5.49946 0.364169 6.41066 0.170446 7.35001 0.15205M7.50019 0.000375432C3.35795 0 0 3.35786 0 7.5C0 10.3833 1.62679 12.8863 4.01271 14.1414L5.58844 11.1233C4.28942 10.4366 3.40412 9.07156 3.40412 7.5C3.40412 5.23802 5.23778 3.40404 7.49981 3.40404V0L7.50019 0.000375432Z" fill="#FAFAFA"/>
<path d="M7.34964 3.25649L7.36342 3.65626L7.74964 3.64294V3.25649H7.34964ZM5.38721 11.1841L5.7418 11.3692L5.91964 11.0285L5.58636 10.8372L5.38721 11.1841ZM3.95002 13.9372L3.75659 14.2873L4.11508 14.4853L4.30461 14.1223L3.95002 13.9372ZM1.23933 11.3527L0.89886 11.5626L0.898898 11.5627L1.23933 11.3527ZM0.727605 4.63959L0.359208 4.48375L0.359171 4.48384L0.727605 4.63959ZM4.63933 0.727962L4.48351 0.359558L4.4835 0.359563L4.63933 0.727962ZM7.50019 0.000375432L7.50015 0.400375L8.46664 0.400463L7.78289 -0.282609L7.50019 0.000375432ZM4.01271 14.1414L3.8265 14.4954L4.1816 14.6822L4.3673 14.3265L4.01271 14.1414ZM5.58844 11.1233L5.94302 11.3084L6.12721 10.9556L5.77537 10.7697L5.58844 11.1233ZM7.49981 3.40404V3.80404H7.89981V3.40404H7.49981ZM7.49981 0L7.78251 -0.282984L7.09981 -0.965002V0H7.49981ZM6.94964 0.151674V3.25649H7.74964V0.151674H6.94964ZM7.33585 2.85673C6.15655 2.8974 5.05275 3.37667 4.21457 4.21483L4.78025 4.78052C5.47537 4.08542 6.38694 3.68993 7.36342 3.65626L7.33585 2.85673ZM4.21457 4.21483C3.33759 5.09179 2.85395 6.25977 2.85395 7.5H3.65395C3.65395 6.47187 4.05335 5.5074 4.78025 4.78052L4.21457 4.21483ZM2.85395 7.5C2.85395 9.17243 3.7445 10.7023 5.18805 11.531L5.58636 10.8372C4.39056 10.1507 3.65395 8.88509 3.65395 7.5H2.85395ZM5.03261 10.999L3.59543 13.752L4.30461 14.1223L5.7418 11.3692L5.03261 10.999ZM4.14344 13.587C3.09469 13.0076 2.21045 12.165 1.57976 11.1427L0.898898 11.5627C1.60178 12.7021 2.58724 13.6413 3.75659 14.2873L4.14344 13.587ZM1.5798 11.1427C0.906353 10.0506 0.550176 8.79134 0.550176 7.50038H-0.249824C-0.249824 8.9388 0.147134 10.3436 0.89886 11.5626L1.5798 11.1427ZM0.550176 7.50038C0.550176 6.5612 0.734081 5.65159 1.09604 4.79533L0.359171 4.48384C-0.0447713 5.43942 -0.249824 6.45502 -0.249824 7.50038H0.550176ZM1.096 4.79542C1.44601 3.96798 1.947 3.2249 2.5858 2.58612L2.02012 2.02043C1.30882 2.7317 0.749566 3.56093 0.359208 4.48375L1.096 4.79542ZM2.5858 2.58612C3.22459 1.94734 3.96769 1.44637 4.79515 1.09636L4.4835 0.359563C3.56066 0.74991 2.73141 1.30915 2.02012 2.02043L2.5858 2.58612ZM4.79514 1.09637C5.60817 0.752498 6.46912 0.569378 7.35784 0.551973L7.34218 -0.247873C6.3522 -0.228486 5.39076 -0.0241606 4.48351 0.359558L4.79514 1.09637ZM7.50022 -0.399625C3.13704 -0.40002 -0.4 3.13695 -0.4 7.5H0.4C0.4 3.57878 3.57885 0.40002 7.50015 0.400375L7.50022 -0.399625ZM-0.4 7.5C-0.4 10.5376 1.3143 13.1739 3.8265 14.4954L4.19893 13.7874C1.93928 12.5987 0.4 10.229 0.4 7.5H-0.4ZM4.3673 14.3265L5.94302 11.3084L5.23386 10.9382L3.65813 13.9563L4.3673 14.3265ZM5.77537 10.7697C4.60222 10.1495 3.80412 8.91752 3.80412 7.5H3.00412C3.00412 9.2256 3.97661 10.7237 5.40151 11.4769L5.77537 10.7697ZM3.80412 7.5C3.80412 5.4589 5.45873 3.80404 7.49981 3.80404V3.00404C5.01683 3.00404 3.00412 5.01715 3.00412 7.5H3.80412ZM7.89981 3.40404V0H7.09981V3.40404H7.89981ZM7.21711 0.282984L7.21749 0.28336L7.78289 -0.282609L7.78251 -0.282984L7.21711 0.282984Z" fill="#FAFAFA" mask="url(#path-4-inside-1_708_698)"/>
<path d="M7.7752 3.13742V0.280156C9.53347 0.345285 11.177 1.03441 12.4568 2.24315L10.4108 4.23893C9.67743 3.58226 8.75782 3.19774 7.7752 3.13742Z" fill="#636363" stroke="#FAFAFA" stroke-width="0.4"/>
<mask id="path-7-inside-2_708_698" fill="white">
<path d="M7.65018 0.151674C8.60079 0.170446 9.52213 0.368299 10.3913 0.740727C11.2289 1.09926 11.9835 1.60422 12.6364 2.24245L10.4134 4.41095C9.65916 3.698 8.6879 3.29216 7.65055 3.25649V0.151674M7.50038 0V3.40404C8.64022 3.40404 9.67118 3.86958 10.4134 4.62081L12.8504 2.24358C11.4891 0.858988 9.59496 0 7.5 0H7.50038Z"/>
</mask>
<path d="M7.65018 0.151674C8.60079 0.170446 9.52213 0.368299 10.3913 0.740727C11.2289 1.09926 11.9835 1.60422 12.6364 2.24245L10.4134 4.41095C9.65916 3.698 8.6879 3.29216 7.65055 3.25649V0.151674M7.50038 0V3.40404C8.64022 3.40404 9.67118 3.86958 10.4134 4.62081L12.8504 2.24358C11.4891 0.858988 9.59496 0 7.5 0H7.50038Z" fill="#FAFAFA"/>
<path d="M10.3913 0.740727L10.2337 1.10839L10.2339 1.10845L10.3913 0.740727ZM12.6364 2.24245L12.9157 2.52878L13.2089 2.24276L12.916 1.95642L12.6364 2.24245ZM10.4134 4.41095L10.1387 4.70164L10.4178 4.96548L10.6927 4.69728L10.4134 4.41095ZM7.65055 3.25649H7.25055V3.64298L7.63681 3.65626L7.65055 3.25649ZM7.50038 0H7.90038V-0.4H7.50038V0ZM7.50038 3.40404H7.10038V3.80404H7.50038V3.40404ZM10.4134 4.62081L10.1289 4.90195L10.4082 5.18468L10.6927 4.90715L10.4134 4.62081ZM12.8504 2.24358L13.1297 2.52991L13.4172 2.2495L13.1356 1.96314L12.8504 2.24358ZM7.64228 0.551596C8.54175 0.569358 9.41224 0.75639 10.2337 1.10839L10.5488 0.373059C9.63201 -0.0197928 8.65983 -0.228466 7.65807 -0.248248L7.64228 0.551596ZM10.2339 1.10845C11.0259 1.44747 11.7391 1.92468 12.3568 2.52849L12.916 1.95642C12.2279 1.28376 11.4319 0.751054 10.5487 0.372999L10.2339 1.10845ZM12.3571 1.95612L10.1341 4.12462L10.6927 4.69728L12.9157 2.52878L12.3571 1.95612ZM10.6882 4.12025C9.86311 3.34037 8.79902 2.89575 7.6643 2.85673L7.63681 3.65626C8.57677 3.68858 9.45522 4.05564 10.1387 4.70164L10.6882 4.12025ZM8.05055 3.25649V0.151674H7.25055V3.25649H8.05055ZM7.10038 0V3.40404H7.90038V0H7.10038ZM7.50038 3.80404C8.52901 3.80404 9.45872 4.22367 10.1289 4.90195L10.698 4.33968C9.88363 3.51548 8.75142 3.00404 7.50038 3.00404V3.80404ZM10.6927 4.90715L13.1297 2.52991L12.5711 1.95725L10.1341 4.33448L10.6927 4.90715ZM13.1356 1.96314C11.7022 0.50527 9.70663 -0.4 7.5 -0.4V0.4C9.48329 0.4 11.2759 1.21271 12.5652 2.52402L13.1356 1.96314ZM7.5 0.4H7.50038V-0.4H7.5V0.4Z" fill="#FAFAFA" mask="url(#path-7-inside-2_708_698)"/>
</g>
<defs>
<clipPath id="clip0_708_698">
<rect width="15" height="15" fill="white"/>
</clipPath>
</defs>
</svg>
