<svg width="20" height="17" viewBox="0 0 20 17" fill="none" xmlns="http://www.w3.org/2000/svg">
<path fill-rule="evenodd" clip-rule="evenodd" d="M10.244 11.2773C10.5695 10.944 11.0971 10.944 11.4226 11.2773L15.0001 14.9403L18.5774 11.2779C18.9029 10.9447 19.4305 10.9447 19.756 11.2779C20.0814 11.6112 20.0813 12.1515 19.7559 12.4847L15.5893 16.7504C15.2638 17.0836 14.7362 17.0836 14.4108 16.7504L10.244 12.484C9.91858 12.1508 9.91858 11.6105 10.244 11.2773Z" fill="#9F9F9F"/>
<path fill-rule="evenodd" clip-rule="evenodd" d="M15.0005 5.05371C15.5026 5.05371 15.9096 5.43574 15.9096 5.90699V16.1463C15.9096 16.6176 15.5026 16.9996 15.0005 16.9996C14.4984 16.9996 14.0914 16.6176 14.0914 16.1463V5.90699C14.0914 5.43574 14.4984 5.05371 15.0005 5.05371Z" fill="#9F9F9F"/>
<path fill-rule="evenodd" clip-rule="evenodd" d="M0 7.96029C0 7.37014 0.370019 6.89172 0.826461 6.89172H8.26451C8.72095 6.89172 9.09097 7.37014 9.09097 7.96029C9.09097 8.55044 8.72095 9.02885 8.26451 9.02885H0.826461C0.370019 9.02885 0 8.55044 0 7.96029Z" fill="#9F9F9F"/>
<path fill-rule="evenodd" clip-rule="evenodd" d="M0 1.06856C0 0.478413 0.374886 0 0.837332 0H15.0719C15.5343 0 15.9092 0.478413 15.9092 1.06856C15.9092 1.65872 15.5343 2.13713 15.0719 2.13713H0.837332C0.374886 2.13713 0 1.65872 0 1.06856Z" fill="#9F9F9F"/>
<path fill-rule="evenodd" clip-rule="evenodd" d="M0 14.3925C0 13.8024 0.384404 13.324 0.858591 13.324H6.86873C7.34292 13.324 7.72732 13.8024 7.72732 14.3925C7.72732 14.9827 7.34292 15.4611 6.86873 15.4611H0.858591C0.384404 15.4611 0 14.9827 0 14.3925Z" fill="#9F9F9F"/>
</svg>
